General
Unique ID                   : 243616688158387541999135216207684114067 (0xB746DE125C72EE379D96F743ED3F1693)
Complete name               : SHELLMY - Wrist Cut Baby [WEB-DL 1080p AAC x264-SEKAI].mkv
Format                      : Matroska
Format version              : Version 4
File size                   : 261 MiB
Duration                    : 5 min 24 s
Overall bit rate            : 6 743 kb/s
Frame rate                  : 29.970 FPS
Movie name                  : SHELLMY - Wrist Cut Baby [WEB-DL 1080p AAC x264-SEKAI]
Encoded date                : 2025-08-10 05:54:21 UTC
Writing application         : mkvmerge v94.0 ('Initiate') 64-bit
Writing library             : libebml v1.4.5 + libmatroska v1.7.1
Website                     : https://sekai-archivist.blogspot.com/

Video
ID                          : 1
Format                      : AVC
Format/Info                 : Advanced Video Codec
Format profile              : High@L4
Format settings             : CABAC / 4 Ref Frames
Format settings, CABAC      : Yes
Format settings, Reference  : 4 frames
Format settings, Slice coun : 8 slices per frame
Codec ID                    : V_MPEG4/ISO/AVC
Duration                    : 5 min 24 s
Bit rate                    : 6 499 kb/s
Width                       : 1 920 pixels
Height                      : 1 080 pixels
Display aspect ratio        : 16:9
Frame rate mode             : Constant
Frame rate                  : 29.970 (30000/1001) FPS
Color space                 : YUV
Chroma subsampling          : 4:2:0 (Type 2)
Bit depth                   : 8 bits
Scan type                   : Progressive
Bits/(Pixel*Frame)          : 0.105
Stream size                 : 251 MiB (96%)
Language                    : Japanese
Default                     : Yes
Forced                      : No
Color range                 : Limited
Color primaries             : BT.709
Transfer characteristics    : BT.709
Matrix coefficients         : BT.709

Audio
ID                          : 2
Format                      : AAC LC
Format/Info                 : Advanced Audio Codec Low Complexity
Codec ID                    : A_AAC-2
Duration                    : 5 min 24 s
Bit rate                    : 243 kb/s
Channel(s)                  : 2 channels
Channel layout              : L R
Sampling rate               : 48.0 kHz
Frame rate                  : 46.875 FPS (1024 SPF)
Compression mode            : Lossy
Stream size                 : 9.39 MiB (4%)
Language                    : Japanese
Default                     : Yes
Forced                      : No

